<svg t="1737352205577" class="icon" viewBox="0 0 1024 1024" version="1.1" xmlns="http://www.w3.org/2000/svg" p-id="8147" width="200" height="200"><path d="M332.8 358.4m-76.8 0a76.8 76.8 0 1 0 153.6 0 76.8 76.8 0 1 0-153.6 0Z" fill="#8a8a8a" p-id="8148"></path><path d="M563.2 599.04l-15.36-20.48-40.96 35.84c-10.24 10.24-25.6 10.24-35.84-5.12l-46.08-56.32c-10.24-10.24-20.48-10.24-30.72-5.12l-209.92 122.88V281.6c0-30.72 20.48-51.2 51.2-51.2h245.76c0-25.6 10.24-56.32 15.36-76.8H204.8c-56.32 0-102.4 46.08-102.4 102.4v512c0 56.32 46.08 102.4 102.4 102.4h286.72l71.68-271.36z" fill="#8a8a8a" p-id="8149"></path><path d="M819.2 153.6h-235.52l-25.6 76.8h235.52c30.72 0 51.2 20.48 51.2 51.2v291.84l-87.04-138.24c-10.24-15.36-25.6-15.36-40.96-5.12l-112.64 97.28c-10.24 5.12-10.24 20.48-5.12 30.72l20.48 30.72c5.12 10.24 5.12 15.36 0 25.6l-117.76 256H819.2c56.32 0 102.4-46.08 102.4-102.4V256c0-56.32-46.08-102.4-102.4-102.4z" fill="#8a8a8a" p-id="8150"></path></svg>